:SAMPLES-PER-SECOND 30
:FULLY-SPECIFIED
:DEGREES
513
root  -19.4662 33.9348 7.38302 -67.1676 -73.3016 69.6933
RightUpLeg  -17.4536 -14.8366 -53.6194
RightLeg  28.1716 -1.3989 -1.04071
RightFoot  14.3622 -8.1063 34.9728
RightToes  -1.16417e-010 0 -3.6325e-017
Spine  26.2477 3.77074 26.5069
Spine1  -16.5993 9.29158 -6.61005
HEad  -16.4522 -8.43152 -28.3394
LeftShoulder1  0.398367 0.300761 -4.51082
LeftArm  37.9802 25.5443 -12.0192
LeftForeArm  34.5963 -27.1931 -4.00101
LeftHand  2.47877 10.691 49.8499
RightShoulder  0.293941 -11.314 -13.8731
RightArm  -59.7258 12.6684 -12.7707
RightForeArm  -65.4359 13.532 -3.70978
RightHand  0.272397 -9.08932 -9.58274
LeftUpLeg  -28.9942 22.6409 0.252126
LeftLeg  56.509 -4.584 -6.88405
LeftFoot  -14.2618 -0.395711 -18.7252
LeftToes  6.91183e-011 3.39355e-011 2.1261e-011
514
root  -19.6158 34.3524 8.28843 -61.9275 -71.6282 62.6746
RightUpLeg  -11.6401 -9.36252 -55.4973
RightLeg  23.3617 -8.97095 -4.44925
RightFoot  20.3213 -9.78763 34.1455
RightToes  -1.16417e-010 0 -3.6325e-017
Spine  25.6507 4.54878 27.6639
Spine1  -16.8478 10.0444 -8.8399
HEad  -13.0075 -13.231 -27.9617
LeftShoulder1  0.218779 1.48744 -2.72397
LeftArm  37.2377 26.2356 -11.4058
LeftForeArm  32.8353 -27.0861 -4.06919
LeftHand  2.515 10.8262 49.4033
RightShoulder  0.455956 -11.6631 -15.9372
RightArm  -59.8214 13.4274 -15.513
RightForeArm  -65.0112 12.1499 -4.59166
RightHand  0.176073 -7.47172 -11.3838
LeftUpLeg  -26.146 21.6233 -1.83431
LeftLeg  54.8927 -4.76765 -6.73005
LeftFoot  -14.6456 -0.391676 -16.5354
LeftToes  6.91183e-011 3.39355e-011 2.1261e-011
515
root  -19.7492 34.6588 8.99532 -56.8596 -70.7163 55.6609
RightUpLeg  -6.76384 -6.51174 -55.4565
RightLeg  20.2726 -15.443 -6.42431
RightFoot  25.4605 -10.3318 30.9893
RightToes  -1.16417e-010 0 -3.6325e-017
Spine  25.5765 5.20566 29.0997
Spine1  -17.3804 10.8685 -11.7016
HEad  -9.72103 -18.6173 -27.1579
LeftShoulder1  0.0999428 2.44639 -1.15422
LeftArm  35.2173 26.7317 -11.083
LeftForeArm  31.266 -27.8282 -4.31292
LeftHand  2.53698 11.0031 48.4213
RightShoulder  0.54393 -11.7478 -17.0761
RightArm  -62.109 12.5413 -17.6308
RightForeArm  -61.4103 12.8013 -4.39901
RightHand  0.109088 -6.41297 -14.301
LeftUpLeg  -23.1397 21.3732 -1.92214
LeftLeg  53.8263 -5.8597 -8.03601
LeftFoot  -15.4185 -0.458289 -15.3591
LeftToes  6.91183e-011 3.39355e-011 2.1261e-011
516
root  -19.8457 34.9124 9.50546 -53.1648 -70.7755 49.929
RightUpLeg  -3.23656 -6.26338 -54.2265
RightLeg  18.1801 -19.3283 -7.12199
RightFoot  29.2986 -9.51118 25.8885
RightToes  -1.16417e-010 0 -3.6325e-017
Spine  26.1667 5.55949 31.0422
Spine1  -17.8512 11.78 -15.6636
HEad  -7.09428 -23.8467 -25.4343
LeftShoulder1  0.0296266 3.15471 -0.2053
LeftArm  33.1944 26.8775 -11.3702
LeftForeArm  27.7093 -28.0646 -4.55462
LeftHand  2.48251 11.0506 47.1672
RightShoulder  0.545291 -11.3882 -17.4285
RightArm  -67.7886 10.0553 -18.6179
RightForeArm  -52.1389 15.8583 -2.17104
RightHand  0.0252092 -5.6618 -17.0051
LeftUpLeg  -20.1592 22.5119 -0.116471
LeftLeg  53.3924 -7.77449 -10.5991
LeftFoot  -15.8049 -0.507892 -15.3727
LeftToes  6.91183e-011 3.39355e-011 2.1261e-011
517
root  -19.9139 35.0735 9.77342 -51.6935 -71.1526 46.5687
RightUpLeg  -1.20442 -6.88232 -53.2357
RightLeg  17.2832 -20.0993 -7.03113
RightFoot  30.8974 -8.1613 21.4897
RightToes  -1.16417e-010 0 -3.6325e-017
Spine  27.0831 5.62647 32.1631
Spine1  -17.791 12.4724 -20.2044
HEad  -5.82597 -28.206 -22.5163
LeftShoulder1  0.00854223 3.40344 -0.141446
LeftArm  30.9838 27.1023 -12.5541
LeftForeArm  21.4264 -27.1864 -4.69839
LeftHand  2.41197 11.059 45.9388
RightShoulder  0.479942 -10.6661 -17.1817
RightArm  -74.2708 6.59613 -18.5813
RightForeArm  -37.4018 19.7905 2.38665
RightHand  -0.289727 -3.66349 -18.9319
LeftUpLeg  -17.6117 24.2745 2.12351
LeftLeg  53.6085 -9.53521 -13.1213
LeftFoot  -15.5107 -0.477048 -15.5645
LeftToes  6.91183e-011 3.39355e-011 2.1261e-011
518
root  -19.9596 35.0905 9.77721 -52.7843 -71.2907 46.2048
RightUpLeg  -0.9537 -7.39381 -53.1175
RightLeg  18.5517 -18.6847 -7.01919
RightFoot  30.1532 -7.20102 19.435
RightToes  -1.16417e-010 0 -3.6325e-017
Spine  27.8215 5.42662 31.4341
Spine1  -16.7768 12.6658 -24.6765
HEad  -6.55756 -31.1866 -18.5457
LeftShoulder1  0.0302548 3.17421 -0.742843
LeftArm  27.6623 27.9382 -14.7655
LeftForeArm  13.8647 -26.1542 -4.87708
LeftHand  2.32325 11.0634 44.4174
RightShoulder  0.387814 -9.8139 -16.5523
RightArm  -73.9842 3.21664 -18.0441
RightForeArm  -26.1446 23.316 6.01949
RightHand  -0.729074 -1.22518 -20.2001
LeftUpLeg  -15.6952 25.1987 3.37514
LeftLeg  53.8334 -10.1235 -14.031
LeftFoot  -15.4414 -0.467594 -15.5639
LeftToes  6.91183e-011 3.39355e-011 2.1261e-011
519
root  -19.9918 34.9927 9.55534 -54.7575 -71.4428 47.6645
RightUpLeg  -2.66562 -8.6572 -53.2384
RightLeg  21.8728 -16.2665 -7.24692
RightFoot  28.0896 -6.6075 18.8647
RightToes  -1.16417e-010 0 -3.6325e-017
Spine  27.7472 4.98482 29.4033
Spine1  -15.0081 12.3657 -29.0439
HEad  -9.13396 -32.5326 -13.7312
LeftShoulder1  0.0643909 2.8597 -1.74847
LeftArm  22.9469 28.8858 -17.7525
LeftForeArm  7.00997 -26.009 -5.2129
LeftHand  2.12356 10.8181 42.6417
RightShoulder  0.279754 -8.9305 -15.4166
RightArm  -66.1368 0.409697 -17.8124
RightForeArm  -22.0297 27.0704 6.92939
RightHand  -0.95232 -0.231877 -21.3599
LeftUpLeg  -14.647 24.4457 3.55339
LeftLeg  53.1587 -9.52677 -12.8943
LeftFoot  -16.8205 -0.670221 -15.9838
LeftToes  6.91183e-011 3.39355e-011 2.1261e-011
520
root  -20.0212 34.853 9.16153 -56.022 -72.3159 49.6406
RightUpLeg  -6.15551 -11.3017 -52.5709
RightLeg  26.1137 -13.2435 -7.17049
RightFoot  25.9253 -6.18574 18.7588
RightToes  -1.16417e-010 0 -3.6325e-017
Spine  26.7007 4.38415 27.0182
Spine1  -13.3834 11.7093 -33.2959
HEad  -12.8094 -32.0833 -8.05847
LeftShoulder1  0.080035 2.79029 -3.1764
LeftArm  16.7971 28.9361 -20.9097
LeftForeArm  0.83005 -26.8084 -5.72335
LeftHand  1.85551 10.3249 41.1599
RightShoulder  0.149947 -7.96558 -13.354
RightArm  -57.0303 -2.02871 -18.644
RightForeArm  -18.0204 31.1307 7.74838
RightHand  -1.00405 -0.262656 -22.5953
LeftUpLeg  -14.643 22.5475 3.66053
LeftLeg  51.5607 -8.24101 -10.5092
LeftFoot  -19.5091 -1.10371 -16.9653
LeftToes  6.91183e-011 3.39355e-011 2.1261e-011
521
root  -20.0275 34.7077 8.57548 -58.1669 -74.1784 52.9026
RightUpLeg  -10.8054 -14.2437 -50.8291
RightLeg  30.6426 -9.49582 -6.23867
RightFoot  24.0243 -6.08685 19.4787
RightToes  -1.16417e-010 0 -3.6325e-017
Spine  25.6375 3.62896 24.0035
Spine1  -12.4458 10.673 -36.6357
HEad  -17.2368 -29.5658 -1.69724
LeftShoulder1  0.0831377 2.85186 -4.85832
LeftArm  8.69695 27.7277 -24.089
LeftForeArm  -7.03392 -27.9226 -6.3911
LeftHand  1.7062 10.0731 40.0202
RightShoulder  0.0295193 -7.004 -10.5079
RightArm  -47.8973 -4.08454 -20.3371
RightForeArm  -12.6056 35.7326 8.78136
RightHand  -1.11653 -0.0584068 -24.1248
LeftUpLeg  -15.0507 20.7531 4.69171
LeftLeg  49.9746 -6.50445 -7.75876
LeftFoot  -21.8332 -1.55217 -18.1895
LeftToes  6.91183e-011 3.39355e-011 2.1261e-011
522
root  -19.9755 34.5861 7.74055 -64.3667 -76.5824 59.2092
RightUpLeg  -15.4225 -16.0768 -48.486
RightLeg  35.2849 -5.20951 -4.18547
RightFoot  22.4151 -6.35685 21.2702
RightToes  -1.16417e-010 0 -3.6325e-017
Spine  25.6531 2.59462 19.421
Spine1  -11.7064 9.0837 -37.893
HEad  -22.2373 -24.7982 4.32723
LeftShoulder1  0.115719 2.69005 -6.45134
LeftArm  -1.36696 25.3457 -27.3758
LeftForeArm  -17.6597 -28.5301 -7.04982
LeftHand  1.72366 10.2777 38.8753
RightShoulder  -0.0413508 -6.30124 -7.90236
RightArm  -40.4753 -5.52886 -21.5783
RightForeArm  -7.13807 40.5548 10.0214
RightHand  -1.19953 -0.0553844 -25.8812
LeftUpLeg  -14.575 19.4322 6.96708
LeftLeg  48.9757 -4.44047 -4.97363
LeftFoot  -22.1999 -1.78003 -19.9675
LeftToes  6.91183e-011 3.39355e-011 2.1261e-011
523
root  -19.8659 34.581 6.71694 -75.1838 -79.1274 68.7988
RightUpLeg  -18.8154 -16.925 -45.6958
RightLeg  39.2908 -0.795629 -0.963897
RightFoot  21.7155 -6.7349 22.9466
RightToes  -1.16417e-010 0 -3.6325e-017
Spine  26.5012 1.24439 13.7897
Spine1  -10.5324 6.96244 -36.8189
HEad  -26.9562 -18.2556 8.73762
LeftShoulder1  0.204086 2.18058 -7.83607
LeftArm  -11.9454 21.5906 -30.0094
LeftForeArm  -28.5445 -27.8413 -7.33755
LeftHand  1.65971 10.3188 37.2715
RightShoulder  -0.0684998 -5.85636 -6.25073
RightArm  -35.6421 -6.04237 -21.4655
RightForeArm  -2.83416 44.9653 11.3832
RightHand  -1.17058 -0.452754 -27.2053
LeftUpLeg  -12.5157 17.6829 10.3501
LeftLeg  47.7348 -2.13976 -2.06365
LeftFoot  -20.522 -1.7106 -22.5983
LeftToes  6.91183e-011 3.39355e-011 2.1261e-011
524
root  -19.7463 34.7934 5.63575 -91.6334 -82.1239 83.7651
RightUpLeg  -20.8207 -17.7435 -41.7486
RightLeg  41.6504 3.76673 3.29451
RightFoot  22.4551 -7.00745 23.3208
RightToes  -1.16417e-010 0 -3.6325e-017
Spine  27.071 -0.277585 9.10797
Spine1  -9.13895 4.69032 -34.4526
HEad  -30.0698 -11.0532 11.1739
LeftShoulder1  0.301562 1.63022 -8.63985
LeftArm  -21.3545 16.4347 -31.1812
LeftForeArm  -37.0886 -25.7866 -7.1353
LeftHand  1.36328 9.74047 34.9099
RightShoulder  -0.0680561 -5.27142 -5.13004
RightArm  -32.5764 -5.7839 -20.6743
RightForeArm  0.73975 48.6742 12.7319
RightHand  -1.24883 -0.304773 -28.1381
LeftUpLeg  -9.33179 15.4143 14.8163
LeftLeg  45.0455 0.322443 0.774042
LeftFoot  -17.7782 -1.33949 -25.2718
LeftToes  6.91183e-011 3.39355e-011 2.1261e-011
525
root  -19.6696 35.2226 4.49089 -129.823 -84.9539 121.073
RightUpLeg  -21.7781 -18.3394 -35.8708
RightLeg  42.1417 8.59779 7.96482
RightFoot  23.7534 -7.18348 22.9912
RightToes  -1.16417e-010 0 -3.6325e-017
Spine  26.8836 -1.66695 6.37073
Spine1  -8.07925 2.7513 -31.4631
HEad  -31.0805 -4.01194 12.3337
LeftShoulder1  0.326081 1.42288 -8.13877
LeftArm  -29.2723 10.8805 -31.3218
LeftForeArm  -43.0761 -23.6035 -6.80039
LeftHand  1.10994 9.21023 32.6281
RightShoulder  -0.0411231 -4.38051 -4.12684
RightArm  -29.9045 -5.31864 -19.9171
RightForeArm  3.72193 51.8397 14.0807
RightHand  -1.44388 0.325293 -28.9472
LeftUpLeg  -5.49694 14.1729 20.9977
LeftLeg  40.6717 2.33028 2.56494
LeftFoot  -14.3193 -0.651432 -27.7239
LeftToes  6.91183e-011 3.39355e-011 2.1261e-011
526
root  -19.6527 35.7896 3.18004 165.769 -84.1557 -175.02
RightUpLeg  -21.192 -18.0566 -28.3253
RightLeg  40.9825 13.2101 11.7606
RightFoot  23.8847 -7.27839 23.1982
RightToes  -1.16417e-010 0 -3.6325e-017
Spine  26.2361 -2.55397 4.44137
Spine1  -7.18401 1.26713 -26.7112
HEad  -30.3998 2.79716 13.0754
LeftShoulder1  0.276115 1.52698 -6.23035
LeftArm  -36.1964 6.53464 -31.2808
LeftForeArm  -46.9333 -22.8065 -6.68675
LeftHand  1.10222 9.34478 31.3997
RightShoulder  -0.0067811 -3.64646 -3.63035
RightArm  -26.9078 -4.54304 -18.5865
RightForeArm  6.00559 54.2728 15.2668
RightHand  -1.51166 0.574589 -29.0316
LeftUpLeg  -1.03934 14.1647 29.2202
LeftLeg  34.96 3.2085 2.81031
LeftFoot  -9.06154 0.722471 -31.6878
LeftToes  6.91183e-011 3.39355e-011 2.1261e-011
527
root  -19.6975 36.4346 1.72502 135.559 -79.6916 -145.252
RightUpLeg  -18.3067 -18.1123 -20.497
RightLeg  38.071 17.1072 13.6694
RightFoot  22.2739 -7.1072 23.762
RightToes  -1.16417e-010 0 -3.6325e-017
Spine  25.302 -3.02618 1.809
Spine1  -5.95828 -0.21372 -19.0594
HEad  -28.1944 9.37511 14.0273
LeftShoulder1  0.195995 1.81059 -3.52315
LeftArm  -42.2869 4.0823 -31.1604
LeftForeArm  -49.192 -23.5694 -6.87033
LeftHand  1.11643 9.49658 30.6834
RightShoulder  0.00488692 -3.43277 -3.89184
RightArm  -23.3455 -2.90866 -16.0668
RightForeArm  7.43342 55.31 15.788
RightHand  -1.41256 0.345982 -28.2388
LeftUpLeg  3.31517 12.2834 37.6416
LeftLeg  28.1842 4.61014 2.9878
LeftFoot  -0.728564 3.60985 -37.2348
LeftToes  6.91183e-011 3.39355e-011 2.1261e-011
